<?xml version="1.0" standalone="no"?><!DOCTYPE svg PUBLIC "-//W3C//DTD SVG 1.1//EN" "http://www.w3.org/Graphics/SVG/1.1/DTD/svg11.dtd"><svg t="1537360548095" class="icon" style="" viewBox="0 0 1024 1024" version="1.1" xmlns="http://www.w3.org/2000/svg" p-id="11261" xmlns:xlink="http://www.w3.org/1999/xlink" width="25" height="25"><defs><style type="text/css"></style></defs><path d="M512 0C312.192007 0 149.632289 162.559718 149.632289 362.38369c0 61.856745 12.064542 114.780935 35.858056 157.254515 69.239286 123.665552 300.958392 465.371735 310.785801 479.849186l16.634687 24.512593 16.490871-24.62445c2.333011-3.467557 233.700567-349.024807 303.40326-468.391866 27.197153-46.564339 41.562747-104.857649 41.562747-168.615958C874.367711 162.559718 711.807993 0 512 0zM798.305167 510.865446c-58.229393 99.696263-231.27168 360.146557-285.602068 441.594201-55.592771-82.406415-234.563462-349.120684-292.345428-452.332442-20.421834-36.449299-30.760588-82.805904-30.760588-137.743514 0-177.788206 144.63069-322.434875 322.418896-322.434875s322.418896 144.646669 322.418896 322.434875C834.418896 419.063069 821.922906 470.405286 798.305167 510.865446z" p-id="11262"></path><path d="M512 222.770572c-83.716737 0-151.821476 68.10474-151.821476 151.821476s68.10474 151.837456 151.821476 151.837456 151.821476-68.120719 151.821476-151.837456S595.716737 222.770572 512 222.770572zM512 486.480689c-61.69695 0-111.872661-50.191691-111.872661-111.888641 0-61.68097 50.191691-111.872661 111.872661-111.872661s111.872661 50.191691 111.872661 111.872661C623.872661 436.304977 573.69695 486.480689 512 486.480689z" p-id="11263"></path></svg>