<?xml version="1.0" standalone="no"?><!DOCTYPE svg PUBLIC "-//W3C//DTD SVG 1.1//EN" "http://www.w3.org/Graphics/SVG/1.1/DTD/svg11.dtd"><svg class="icon" width="40px" height="40px" viewBox="0 0 1025 1024" version="1.1" xmlns="http://www.w3.org/2000/svg"><path fill="#333333" d="M572.750281 456.321375l3.270578 2.060996-0.538274 0.536227c13.50188 13.50188 21.850245 32.151134 21.850245 52.744724 0 41.209694-33.403696 74.613389-74.613389 74.613389-20.59973 0-39.246937-8.346319-52.750864-21.844105l-0.546461 0.546461-2.110116-3.342212c-5.710208-6.332396-10.343868-13.64924-13.634913-21.659905l-165.469149-262.831272 262.773965 165.469149C559.039641 445.91406 566.395372 450.576373 572.750281 456.321375L572.750281 456.321375zM873.496108 149.822359C776.835993 53.221598 648.366538 0 511.646958 0c-0.032747 0-0.065493 0.002047-0.09824 0.002047l0 66.688684c0.032747 0 0.065493-0.004093 0.09824-0.004093 118.884901 0 230.633065 46.264968 314.693881 130.295084 173.475721 173.522794 173.475721 455.850641 0 629.312035-84.079236 84.060816-195.87038 130.405604-314.783934 130.405604-118.835781 0-230.594178-46.320228-314.616108-130.305318-84.02193-84.04035-130.284851-195.806933-130.266431-314.722534 0-118.897181 46.287481-230.682185 130.338064-314.695928 1.144088-1.144088 2.410977-2.11421 3.569392-3.237831L143.995499 156.011489C51.140143 251.930709 8.0e-06 377.835687 8.0e-06 511.669463c-0.02456 136.709347 53.166338 265.186988 149.803939 361.883943 96.606902 96.557781 225.096823 149.781426 361.755003 149.781426 136.71958 0 265.254529-53.260485 361.939204-149.88376C1072.952254 673.978554 1072.980907 349.378792 873.496108 149.822359zM572.956994 0.002047 511.548718 0.002047l0 252.209056 61.408277 0L572.956994 0.002047z" /></svg>