<?xml version="1.0" standalone="no"?><!DOCTYPE svg PUBLIC "-//W3C//DTD SVG 1.1//EN" "http://www.w3.org/Graphics/SVG/1.1/DTD/svg11.dtd"><svg t="1535471583985" class="icon" style="" viewBox="0 0 1024 1024" version="1.1" xmlns="http://www.w3.org/2000/svg" p-id="1088" xmlns:xlink="http://www.w3.org/1999/xlink" width="32" height="32"><defs><style type="text/css"></style></defs><path d="M816.665373 721.207789l-27.678386 27.6702c-11.304464 11.313673-25.353434 20.341281-41.8522 26.886347-18.136056 7.240915-38.509059 10.711969-60.280922 10.711969-83.593883 0.039909-215.690434-78.124312-303.229163-165.664064-110.35641-110.36255-176.479387-262.222213-141.53655-350.061794 5.107321-12.861936 12.198833-24.294312 20.633946-34.334993l-0.023536-0.047072 1.795902-2.902096c0.798179-1.311879 1.730411-2.49789 2.783393-3.549849l29.045523-29.021987c7.358595-7.423063 19.321044-7.423063 26.680663 0l13.075807 13.068643 113.927749 113.952308c7.360641 7.336082 7.360641 19.282159-0.023536 26.657126l-30.460756 30.500665-20.712741 20.720927c0 0-10.838859 69.476351 66.321498 146.627499 77.159334 77.120448 146.31846 66.61314 146.31846 66.61314l51.488675-51.505048c7.359618-7.375991 19.337417-7.375991 26.673499 0l127.029138 126.981043C824.017828 701.894931 824.017828 713.832821 816.665373 721.207789z" p-id="1089" fill="#707070"></path></svg>