<?xml version="1.0" standalone="no"?><!DOCTYPE svg PUBLIC "-//W3C//DTD SVG 1.1//EN" "http://www.w3.org/Graphics/SVG/1.1/DTD/svg11.dtd"><svg t="1537359858436" class="icon" style="" viewBox="0 0 1024 1024" version="1.1" xmlns="http://www.w3.org/2000/svg" p-id="1717" xmlns:xlink="http://www.w3.org/1999/xlink" width="25" height="25"><defs><style type="text/css"></style></defs><path d="M659.2125 1016.625l-404.8-1.6625 3.825-932.529167 404.8 1.6625z" fill="#333333" p-id="1718"></path><path d="M659.2125 1016.625l-404.8-1.6625 3.825-932.529167 404.8 1.6625z" fill="#333333" p-id="1719"></path><path d="M629.8 966.170833H194.358333V1.370833h435.441667v964.8z m-403.691667-31.745833h371.945834V33.120833H226.108333v901.304167z" fill="#333333" p-id="1720"></path><path d="M129.566667 934.425h556.170833v31.745833H129.566667z" fill="#333333" p-id="1721"></path><path d="M823.8625 866.708333c-61.441667 0-113.466667-34.066667-126.529167-82.854166l-0.5375-2.016667v-2.0875c0-8.825 0.1-217.1125 9.070834-297.733333 1.433333-12.716667-1.658333-23.125-9.45-31.841667-22.9625-25.691667-80.204167-31.316667-100.325-31.316667l-385.895834-0.941666 0.079167-31.75 385.858333 0.945833c3.491667 0 86.925 0.475 123.958334 41.908333 13.9625 15.625 19.791667 34.641667 17.329166 56.529167-8.291667 74.5375-8.8375 269.1125-8.875 292.008333 11.829167 39.420833 57.4 57.4 95.320834 57.4h0.0125c34.770833-0.004167 75.95-15.170833 88.279166-57.566666 3.333333-142.733333-29.516667-276.1375-62.129166-387.908334l-1.266667-4.3375 1.204167-4.35c41.666667-150.383333 8.25-265.2-102.158334-351.016666l19.483334-25.070834c120.625 93.754167 158.091667 218.154167 114.470833 380.1875 33.029167 113.745833 65.833333 249.283333 62.083333 395.258334l-0.05 1.879166-0.483333 1.816667c-13.666667 51.104167-59.433333 82.85-119.429167 82.858333h-0.020833z" fill="#333333" p-id="1722"></path></svg>