<?xml version="1.0" standalone="no"?><!DOCTYPE svg PUBLIC "-//W3C//DTD SVG 1.1//EN" "http://www.w3.org/Graphics/SVG/1.1/DTD/svg11.dtd"><svg t="1535456916792" class="icon" style="" viewBox="0 0 1024 1024" version="1.1" xmlns="http://www.w3.org/2000/svg" p-id="5042" xmlns:xlink="http://www.w3.org/1999/xlink" width="40" height="40"><defs><style type="text/css"></style></defs><path d="M63.766302 244.757446c1.190105-22.903639 1.90335-45.807279 3.628644-68.591191 2.201132-28.496008 25.937742-51.399647 54.493102-53.243645 25.28385-1.665942 50.745754-2.023076 75.909877-4.759397 100.598162-10.827603 193.58088-43.903929 278.949176-98.277304 17.312294-11.005658 35.219129-14.575973 54.731532-8.030907 5.175883 1.784646 10.233062 4.460592 14.813381 7.435343 76.087932 48.544623 158.720931 80.074733 247.65852 94.709035 33.611515 5.592368 67.581188 8.149611 101.667517 8.626471 35.991726 0.535189 59.489906 24.153096 61.989843 60.263525 3.390213 47.889707 2.915399 95.66071-1.606591 143.371338-15.765055 165.621085-70.732971 315.715545-178.291662 444.452581-65.796542 78.825276-145.870252 139.207505-239.507886 181.504844-17.788132 8.030907-35.397185 7.614421-53.243645-0.594541-84.714404-38.370913-158.362774-92.031043-220.886783-160.802336-81.32419-89.592504-135.756917-193.997366-168.001295-310.24188C74.712609 403.478378 64.658625 324.712453 63.766302 244.757446L63.766302 244.757446 63.766302 244.757446zM126.410038 182.827979c-0.594541 11.30344-1.547239 22.36845-1.843998 33.553187-1.547239 55.385425 1.784646 110.473067 10.827603 165.204599 14.396895 87.272669 41.762149 170.201403 85.427648 247.479441 67.164702 118.921483 161.218822 209.227232 285.732673 266.933515 3.867074 1.725294 6.959505 1.784646 10.945283 0.059352 112.912629-52.05354 201.969944-131.593084 267.765463-236.712213 88.224344-140.9328 120.885208-296.024064 113.626897-460.752826-0.237407-5.294586-0.951675-10.529821-1.367137-15.943111-2.14178-0.119727-3.748371-0.297782-5.353938-0.358157-37.598316-0.594541-75.017554-3.687996-112.02133-9.993608-94.41023-16.182564-182.158736-49.674353-263.006066-101.074-3.50994-2.261507-6.007831-2.438539-9.874905-0.118704-14.872732 9.101285-29.864168 18.262946-45.331441 26.532283-89.355097 47.830355-184.599322 75.493391-285.673321 82.631976C160.021553 181.341115 143.721309 181.995007 126.410038 182.827979L126.410038 182.827979 126.410038 182.827979zM452.773084 558.391587c2.201132-2.558265 3.569292-4.461615 5.115508-6.068206 69.841671-69.901023 139.742694-139.741671 209.525014-209.642694 7.734148-7.734148 16.359596-12.374842 27.484981-10.827603 11.600199 1.725294 19.74981 8.150634 23.914666 19.036565 4.164856 11.005658 1.963725 21.059642-5.41329 30.042223-1.546216 1.843998-3.390213 3.628644-5.174859 5.353938-76.980255 76.921927-154.020886 154.080238-231.001141 231.001141-16.895809 16.835434-32.778544 16.835434-49.793056-0.179079-38.133505-37.95545-76.206636-75.969229-114.221438-114.042359-12.434194-12.492522-13.326517-30.16195-2.438539-42.237987 11.600199-12.790304 30.874171-13.326517 43.546795-0.892323 18.262946 17.965164 36.289508 36.110429 54.314023 54.19532C423.087994 528.526395 437.424514 542.982642 452.773084 558.391587L452.773084 558.391587 452.773084 558.391587z" p-id="5043"></path></svg>