<?xml version="1.0" standalone="no"?><!DOCTYPE svg PUBLIC "-//W3C//DTD SVG 1.1//EN" "http://www.w3.org/Graphics/SVG/1.1/DTD/svg11.dtd"><svg t="1537360579860" class="icon" style="" viewBox="0 0 1024 1024" version="1.1" xmlns="http://www.w3.org/2000/svg" p-id="11442" xmlns:xlink="http://www.w3.org/1999/xlink" width="25" height="25"><defs><style type="text/css"></style></defs><path d="M512 0C229.218 0 0 229.218 0 512s229.218 512 512 512 512-229.218 512-512S794.782 0 512 0zM512 944c-238.594 0-432-193.406-432-432S273.406 80 512 80s432 193.406 432 432S750.594 944 512 944z" p-id="11443"></path><path d="M512 256c-141.376 0-256 114.624-256 256s114.624 256 256 256 256-114.624 256-256S653.376 256 512 256zM512 640c-70.688 0-128-57.376-128-128 0-70.688 57.312-128 128-128 70.624 0 128 57.312 128 128C640 582.624 582.624 640 512 640z" p-id="11444"></path><path d="M512 436c-41.906 0-76 34.094-76 76s34.094 76 76 76 76-34.094 76-76S553.906 436 512 436zM512 544c-17.688 0-32-14.312-32-32s14.312-32 32-32 32 14.312 32 32S529.688 544 512 544z" p-id="11445"></path></svg>