<?xml version="1.0" standalone="no"?><!DOCTYPE svg PUBLIC "-//W3C//DTD SVG 1.1//EN" "http://www.w3.org/Graphics/SVG/1.1/DTD/svg11.dtd"><svg t="1537360069095" class="icon" style="" viewBox="0 0 1024 1024" version="1.1" xmlns="http://www.w3.org/2000/svg" p-id="5294" xmlns:xlink="http://www.w3.org/1999/xlink" width="25" height="25"><defs><style type="text/css"></style></defs><path d="M819.2 562.46272a46.46912 46.46912 0 1 1-92.89728 0c0-25.66144 46.44864-107.06944 46.44864-107.06944S819.2 536.80128 819.2 562.46272z m-491.84768-86.54848h172.81024v-129.00352h-172.81024v129.00352z m410.43968-76.63616h-53.26848v283.7504h-95.41632v43.60192h33.60768v40.2432H204.8V726.6304h33.60768V257.1264h350.72v385.67936h55.21408V379.14624l-0.04096-20.1728 20.02944 0.06144h93.12256l31.17056 39.99744-31.70304 24.73984-19.12832-24.49408z m-188.88704 327.39328V297.3696H278.6304v429.30176h270.27456z" fill="" p-id="5295"></path></svg>