<?xml version="1.0" standalone="no"?><!DOCTYPE svg PUBLIC "-//W3C//DTD SVG 1.1//EN" "http://www.w3.org/Graphics/SVG/1.1/DTD/svg11.dtd"><svg t="1537360378564" class="icon" style="" viewBox="0 0 1024 1024" version="1.1" xmlns="http://www.w3.org/2000/svg" p-id="9157" xmlns:xlink="http://www.w3.org/1999/xlink" width="25" height="25"><defs><style type="text/css"></style></defs><path d="M176.144254 232.373395m-112.168686 0a109.614 109.614 0 1 0 224.337371 0 109.614 109.614 0 1 0-224.337371 0Z" p-id="9158"></path><path d="M952.465269 728.274742c-16.23373-16.234753-25.089421-26.566052-88.462774-35.124985-85.705987-11.573593-209.230302-15.654538-243.612367-15.055904-45.064358 0.785899-186.595792 6.988158-240.531192 12.729929-0.105401-2.505054-0.069585-4.802376 0.141216-6.826476 10.150174-97.408517-10.794857-153.935951-25.27157-196.294688-13.868869-40.577161-62.184271-97.604992-66.415642-101.837386-11.806907-11.80793-38.373982-35.421744-75.270311-22.138206-36.897352 13.283538-66.415642 45.753043-75.271334 60.512189-8.855692 14.759145 126.927831 444.24485 126.927831 444.24485l59.035558-5.746888 0 39.693024 575.600527 0 0-35.245735 53.131081 1.300622C952.465269 868.484064 968.701045 744.509495 952.465269 728.274742z" p-id="9159"></path></svg>