<?xml version="1.0" standalone="no"?><!DOCTYPE svg PUBLIC "-//W3C//DTD SVG 1.1//EN" "http://www.w3.org/Graphics/SVG/1.1/DTD/svg11.dtd"><svg t="1537359939328" class="icon" style="" viewBox="0 0 1024 1024" version="1.1" xmlns="http://www.w3.org/2000/svg" p-id="2164" xmlns:xlink="http://www.w3.org/1999/xlink" width="25" height="25"><defs><style type="text/css"></style></defs><path d="M510.355035 771.56878l-23.740704 36.348859 33.073256 0 0-31.600719c0-6.54916 0.654916-16.700357 0.982374-23.25054l-0.654916 0C517.068947 759.125377 513.794367 765.347079 510.355035 771.56878z" p-id="2165"></path><path d="M546.824645 696.732351 546.824645 550.715767l309.176618 0c0.00614 0 0.01228 0 0.01842 0 19.780509 0 35.815717-16.035208 35.815717-35.815717 0 0 0 0 0-0.001023L891.8354 325.468676c38.84982-14.518668 66.514903-51.967582 66.514903-95.881744 0-56.516178-45.814442-102.33062-102.33062-102.33062s-102.33062 45.814442-102.33062 102.33062c0 43.914162 27.665083 81.363076 66.514903 95.881744L820.203966 479.084333 546.824645 479.084333 546.824645 325.468676c38.84982-14.518668 66.514903-51.967582 66.514903-95.881744 0-56.516178-45.814442-102.33062-102.33062-102.33062-56.516178 0-102.33062 45.814442-102.33062 102.33062 0 43.915186 27.665083 81.363076 66.514903 95.881744L475.193211 479.084333 201.890638 479.084333 201.890638 325.468676c38.84982-14.518668 66.514903-51.967582 66.514903-95.881744 0-56.516178-45.814442-102.33062-102.33062-102.33062s-102.33062 45.814442-102.33062 102.33062c0 43.914162 27.665083 81.363076 66.514903 95.881744l0 371.260605c-38.84982 14.518668-66.514903 51.966559-66.514903 95.880721 0 56.516178 45.814442 102.33062 102.33062 102.33062s102.33062-45.814442 102.33062-102.33062c0-43.914162-27.665083-81.363076-66.514903-95.880721L201.890638 550.715767l273.302573 0 0 146.015561c-38.850843 14.518668-66.514903 51.966559-66.514903 95.880721 0 56.516178 45.814442 102.33062 102.33062 102.33062 56.516178 0 102.33062-45.814442 102.33062-102.33062C613.339548 748.69891 585.674465 711.249997 546.824645 696.732351zM813.76123 273.17159l9.005095-12.279674c6.877641 6.876618 15.555278 12.93459 28.16241 12.93459 13.589506 0 23.904433-9.660011 23.904433-25.706475 0-16.045441-9.169847-25.215288-22.922059-25.215288-7.696286 0-12.280698 2.292206-19.321044 6.876618l-9.168824-6.057973 3.602038-57.142441 61.072961 0 0 15.882736-44.699038 0-2.784416 30.945803c5.076622-2.619664 9.988492-4.256954 16.537651-4.256954 20.138666 0 36.676317 11.952216 36.676317 38.313607 0 26.688849-19.484773 41.751916-40.606837 41.751916C834.227354 289.217031 822.275137 281.521768 813.76123 273.17159zM204.389552 838.864466l0 16.045441-77.773318 0 0-10.969842c35.530215-31.43699 53.867862-54.851259 53.867862-74.662467 0-13.099343-7.040347-22.104437-20.466124-22.104437-9.496282 0-17.355273 6.057973-23.740704 13.425777l-10.642384-10.478655c10.314926-11.133571 20.957311-18.011212 36.676317-18.011212 22.104437 0 36.348859 14.409175 36.348859 36.18513 0 23.25054-18.502399 47.318702-44.044122 71.714322 6.221702-0.654916 13.753235-1.14508 19.647479-1.14508L204.389552 838.863443zM133.493875 288.145629l0-15.554254 26.361391 0 0-83.83129L138.242016 188.760085l0-11.95324c11.2973-2.128477 19.320021-4.91187 26.197662-9.168824l14.244422 0L178.6841 272.591375l23.577998 0 0 15.554254L133.493875 288.145629zM468.930577 271.145443l9.168824-12.115945c7.040347 7.204076 16.045441 13.262048 28.489868 13.262048 13.588483 0 22.922059-7.531534 22.922059-19.97596 0-13.425777-8.513908-22.103414-35.693944-22.103414l0-13.917988c23.740704 0 31.600719-9.005095 31.600719-21.122063 0-10.642384-7.04137-17.355273-18.501376-17.519002-9.333576 0.163729-17.192567 4.748141-24.069185 11.461029l-9.824763-11.788487c9.496282-8.513908 20.630876-14.572904 34.547841-14.572904 21.612227 0 36.840046 11.133571 36.840046 31.109532 0 13.916964-8.023744 23.577998-20.793582 28.326139l0 0.818645c13.916964 3.438309 24.886807 13.917988 24.886807 30.127158 0 21.775956-18.174941 34.547841-40.278355 34.547841C489.233995 287.683095 476.954321 280.150538 468.930577 271.145443zM552.762891 822.490543l-15.391549 0 0 32.419364-17.682731 0 0-32.419364-52.066843 0 0-12.607132 47.973618-75.481112 21.775956 0 0 73.516364 15.391549 0L552.762891 822.490543z" p-id="2166"></path><path d="M882.446565 769.276574c0-14.57188-9.496282-19.646456-27.015284-19.646456l-18.174941 0 0 41.423435 18.174941 0C872.94926 791.053554 882.446565 783.849478 882.446565 769.276574z" p-id="2167"></path><path d="M856.018659 690.282452c-56.516178 0-102.33062 45.814442-102.33062 102.33062s45.814442 102.33062 102.33062 102.33062 102.33062-45.814442 102.33062-102.33062S912.534837 690.282452 856.018659 690.282452zM884.082832 854.909907l-27.343765-48.628534-19.48375 0 0 48.628534-18.993586 0L818.261731 734.402299l39.45971 0c24.88783 0 43.553958 8.842389 43.553958 34.874275 0 18.666128-9.988492 29.7997-25.215288 34.548864l29.472242 51.084469L884.082832 854.909907z" p-id="2168"></path></svg>