<?xml version="1.0" standalone="no"?><!DOCTYPE svg PUBLIC "-//W3C//DTD SVG 1.1//EN" "http://www.w3.org/Graphics/SVG/1.1/DTD/svg11.dtd"><svg t="1537359792321" class="icon" style="" viewBox="0 0 1024 1024" version="1.1" xmlns="http://www.w3.org/2000/svg" p-id="1514" xmlns:xlink="http://www.w3.org/1999/xlink" width="25" height="25"><defs><style type="text/css"></style></defs><path d="M961.754167 53.266667l-551.5625-2.241667-356.925 419.166667 7.204166 532.7875 906.720834 13.108333-5.4375-962.820833z m-57.866667 448.458333l-775.975-3.191667 300.704167-363.3 486.0125 2.008334-10.741667 364.483333z" fill="#333333" p-id="1515"></path><path d="M951.6875 994.920833L13.3375 985.266667 3.508333 431.079167 367.383333 0.1875H942.041667l9.645833 994.733333z m-907.154167-41.083333l875.0875 9.004167-9.020833-930.904167H382.129167L35.466667 442.45l9.066666 511.3875z" fill="#333333" p-id="1516"></path><path d="M885.695833 480.633333H60.808333l325.1-396.233333h509.933334l-10.145834 396.233333z m-757.766666-31.754166H854.75l8.516667-332.729167H400.929167l-273 332.729167zM867.316667 639.604167h-148.725l-38.720834-115.841667h187.445834v115.841667z m-125.858334-31.745834h94.1125v-52.345833h-111.608333l17.495833 52.345833z" fill="#333333" p-id="1517"></path></svg>