<?xml version="1.0" standalone="no"?><!DOCTYPE svg PUBLIC "-//W3C//DTD SVG 1.1//EN" "http://www.w3.org/Graphics/SVG/1.1/DTD/svg11.dtd"><svg t="1537360682317" class="icon" style="" viewBox="0 0 1024 1024" version="1.1" xmlns="http://www.w3.org/2000/svg" p-id="12424" xmlns:xlink="http://www.w3.org/1999/xlink" width="25" height="25"><defs><style type="text/css"></style></defs><path d="M898.3 73H127.9c-29.5 0-53.5 24-53.5 53.5v770.4c0 29.5 24 53.5 53.5 53.5h770.4c29.5 0 53.5-24 53.5-53.5V126.5c0-29.5-24-53.5-53.5-53.5z m32.1 823.9c0 17.7-14.4 32.1-32.1 32.1H127.9c-17.7 0-32.1-14.4-32.1-32.1V126.5c0-17.7 14.4-32.1 32.1-32.1h770.4c17.7 0 32.1 14.4 32.1 32.1v770.4z" fill="#4F5953" p-id="12425"></path><path d="M513.1 180c-182.9 0-331.7 148.8-331.7 331.7s148.8 331.7 331.7 331.7c182.9 0 331.7-148.8 331.7-331.7S696 180 513.1 180z m0 642C342 822 202.8 682.8 202.8 511.7S342 201.4 513.1 201.4c171.1 0 310.3 139.2 310.3 310.3S684.2 822 513.1 822z" fill="#4F5953" p-id="12426"></path><path d="M661 344.4c-0.6-0.2-1.2-0.4-1.8-0.4-33-5.5-67.6 4.5-94.8 27.6-34.1 28.9-53.8 75.3-56.3 131.4-33.5-0.4-127.4-84-146.3-141.3-1.9-5.6-7.9-8.7-13.5-6.8-55.3 18.2-57.8 86.3-51.3 119.7 0.1 0.6 0.3 1.2 0.5 1.7 11.8 31.4 37.7 56.3 71.3 68.3 15.3 5.5 31.6 8.2 48.5 8.2 31.3 0 64.9-9.4 98.2-27.6 16.8 28.6-8.7 152.7-49 197.9-3.9 4.4-3.6 11.2 0.9 15.1 14.8 13.2 31.5 18.2 48.1 18.2 32.3 0 64.2-18.9 81.2-33.6 0.5-0.4 0.9-0.8 1.3-1.3 21.3-25.9 29.9-60.8 23.5-95.9-8.1-44.8-39.5-85.7-88.2-116 24.1-28.4 136.5-64.4 193.1-52.6 5.8 1.1 11.5-2.5 12.7-8.3 11.7-57-45.9-93.2-78.1-104.3z m-285 180c-27.3-9.8-48.4-29.7-58.1-54.8-1.3-7.9-9.9-69.1 27.9-90.4 22.4 50.6 87.9 117.1 136.6 138.2-38 15.7-75 18.3-106.4 7z m224.4 105c5.2 28.5-1.5 56.8-18.4 77.7-6.2 5.1-54.8 43.2-92.3 21 32.6-44.7 57.4-134.6 51.4-187.4 32.6 25.2 53.3 55.9 59.3 88.7z m-69.3-146c5.5-40.8 21.7-74 47.2-95.6 18.4-15.6 40.8-24 63.1-24 4.5 0 9 0.3 13.4 1 7.5 2.8 64.8 25.9 64.4 69.4-55.1-5.8-145.4 17.6-188.1 49.2z" fill="#4F5953" p-id="12427"></path></svg>