<?xml version="1.0" standalone="no"?><!DOCTYPE svg PUBLIC "-//W3C//DTD SVG 1.1//EN" "http://www.w3.org/Graphics/SVG/1.1/DTD/svg11.dtd"><svg t="1537360515447" class="icon" style="" viewBox="0 0 1024 1024" version="1.1" xmlns="http://www.w3.org/2000/svg" p-id="10641" xmlns:xlink="http://www.w3.org/1999/xlink" width="25" height="25"><defs><style type="text/css"></style></defs><path d="M552.96 716.8c-46.08 0-94.72-10.24-138.24-33.28-66.56-30.72-117.76-81.92-148.48-143.36-30.72-64-30.72-128-2.56-186.88 35.84-74.24 117.76-122.88 212.48-122.88 46.08 0 94.72 10.24 138.24 33.28 66.56 30.72 117.76 81.92 148.48 143.36 30.72 64 30.72 128 2.56 186.88-35.84 76.8-117.76 122.88-212.48 122.88z m-76.8-432.64c-76.8 0-140.8 35.84-166.4 92.16-20.48 43.52-17.92 92.16 2.56 143.36 23.04 51.2 66.56 92.16 122.88 120.32 35.84 17.92 76.8 28.16 115.2 28.16 76.8 0 140.8-35.84 166.4-92.16 20.48-43.52 17.92-92.16-2.56-143.36-23.04-51.2-66.56-92.16-122.88-120.32-35.84-17.92-76.8-28.16-115.2-28.16z" fill="#333333" p-id="10642"></path><path d="M591.1552 153.984l48.7936 15.5136-100.1216 314.6752-48.7936-15.5136zM675.84 865.28H220.16l102.4-143.36 40.96 28.16-43.52 64h355.84z" fill="#333333" p-id="10643"></path></svg>